# xmcd
#
# Track frame offsets:
#	182
#	13917
#	27120
#	42302
#	67550
#	88280
#	106240
#	127077
#	147870
#	171462
#
# Disc length: 2527 seconds
#
# Revision: 1
# Processed by: cddbd v1.5.2PL0 Copyright (c) Steve Scherf et al.
# Submitted via: audiograbber 1.83.01
#
DISCID=8609dd0a
DTITLE=Bob Dylan and Friends - Live in N.Y. 92
DYEAR=1992
DGENRE=Rock
TTITLE0=It ain't me, babe
TTITLE1=I'll be your baby Tonight
TTITLE2=If not for You
TTITLE3=I Want You
TTITLE4=Highway 61 Revisited
TTITLE5=I Shall Released
TTITLE6=Love minus Zero
TTITLE7=My Back Page
TTITLE8=Knockin on Heaven's Door
TTITLE9=Girl from the North Country
EXTD=
EXTT0=
EXTT1=
EXTT2=
EXTT3=
EXTT4=
EXTT5=
EXTT6=
EXTT7=
EXTT8=
EXTT9=
PLAYORDER=
